<svg width="9" height="29" viewBox="0 0 9 29" fill="none" xmlns="http://www.w3.org/2000/svg">
<path d="M0.79875 -1.90735e-06H8.23875L6.99875 18.28H2.03875L0.79875 -1.90735e-06ZM4.51875 28.32C3.42542 28.32 2.50542 27.9733 1.75875 27.28C1.03875 26.56 0.67875 25.6933 0.67875 24.68C0.67875 23.6667 1.03875 22.8267 1.75875 22.16C2.47875 21.4667 3.39875 21.12 4.51875 21.12C5.63875 21.12 6.55875 21.4667 7.27875 22.16C7.99875 22.8267 8.35875 23.6667 8.35875 24.68C8.35875 25.6933 7.98542 26.56 7.23875 27.28C6.51875 27.9733 5.61208 28.32 4.51875 28.32Z" fill="#F49D9C"/>
</svg>
