<svg width="42" height="42" viewBox="0 0 42 42" fill="none" xmlns="http://www.w3.org/2000/svg">
<path d="M20.8482 22.6308C20.8916 22.6308 20.9351 22.6308 20.9873 22.6308C21.0047 22.6308 21.0221 22.6308 21.0395 22.6308C21.0656 22.6308 21.1004 22.6308 21.1265 22.6308C23.6748 22.5873 25.7361 21.6914 27.2582 19.9781C30.6067 16.2034 30.0501 9.73245 29.9892 9.11493C29.7717 4.47919 27.58 2.26134 25.7709 1.22634C24.4228 0.452268 22.8486 0.0347898 21.0917 0H21.0308C21.0221 0 21.0047 0 20.996 0H20.9438C19.9784 0 18.0824 0.156554 16.2646 1.19155C14.4381 2.22655 12.2116 4.4444 11.9942 9.11493C11.9333 9.73245 11.3766 16.2034 14.7252 19.9781C16.2385 21.6914 18.2998 22.5873 20.8482 22.6308ZM14.3164 9.33237C14.3164 9.30628 14.3251 9.28018 14.3251 9.26279C14.6121 3.02671 19.0391 2.35701 20.9351 2.35701H20.9699C20.9873 2.35701 21.0134 2.35701 21.0395 2.35701C23.3878 2.40919 27.3799 3.36591 27.6496 9.26279C27.6496 9.28888 27.6496 9.31497 27.6583 9.33237C27.667 9.39325 28.2758 15.3075 25.51 18.4212C24.4141 19.6562 22.9529 20.2651 21.0308 20.2825C21.0134 20.2825 21.0047 20.2825 20.9873 20.2825C20.9699 20.2825 20.9612 20.2825 20.9438 20.2825C19.0304 20.2651 17.5605 19.6562 16.4733 18.4212C13.7162 15.3249 14.3077 9.38455 14.3164 9.33237Z" fill="black"/>
<path d="M38.8605 33.3634C38.8605 33.3547 38.8605 33.346 38.8605 33.3373C38.8605 33.2677 38.8518 33.1982 38.8518 33.1199C38.7996 31.3978 38.6866 27.3709 34.9119 26.0836C34.8858 26.0749 34.851 26.0662 34.8249 26.0575C30.9023 25.0573 27.6408 22.796 27.606 22.7699C27.0755 22.3959 26.3449 22.5264 25.9709 23.0569C25.5969 23.5875 25.7273 24.3181 26.2579 24.692C26.4057 24.7964 29.8673 27.2056 34.1987 28.3189C36.2252 29.0408 36.4513 31.2064 36.5122 33.1895C36.5122 33.2677 36.5122 33.3373 36.5209 33.4069C36.5296 34.1897 36.4774 35.3986 36.3382 36.0944C34.9293 36.8946 29.4064 39.6604 21.0046 39.6604C12.6377 39.6604 7.08001 36.8859 5.66232 36.0857C5.52316 35.3899 5.46228 34.181 5.47968 33.3982C5.47968 33.3286 5.48837 33.259 5.48837 33.1808C5.54926 31.1977 5.77539 29.0321 7.8019 28.3102C12.1332 27.1969 15.5948 24.779 15.7427 24.6833C16.2732 24.3094 16.4037 23.5788 16.0297 23.0482C15.6557 22.5177 14.9251 22.3872 14.3946 22.7612C14.3598 22.7873 11.1156 25.0486 7.17568 26.0488C7.14089 26.0575 7.1148 26.0662 7.08871 26.0749C3.31401 27.3709 3.20094 31.3978 3.14876 33.1112C3.14876 33.1895 3.14876 33.259 3.14006 33.3286C3.14006 33.3373 3.14006 33.346 3.14006 33.3547C3.13136 33.807 3.12267 36.1292 3.58363 37.2947C3.67061 37.5208 3.82716 37.7121 4.0359 37.8426C4.29682 38.0166 10.5503 42 21.0133 42C31.4764 42 37.7298 38.0079 37.9908 37.8426C38.1908 37.7121 38.356 37.5208 38.443 37.2947C38.8779 36.1379 38.8692 33.8157 38.8605 33.3634Z" fill="black"/>
</svg>
