<svg width="42" height="42" viewBox="0 0 42 42" fill="none" xmlns="http://www.w3.org/2000/svg">
<g clip-path="url(#clip0)">
<path d="M13.3982 32.6683C10.9765 32.6683 9.01343 34.6315 9.01343 37.0531C9.01343 39.4747 10.9766 41.4378 13.3982 41.4378C15.8198 41.4378 17.7829 39.4746 17.7829 37.0531C17.783 34.6315 15.8198 32.6683 13.3982 32.6683ZM13.3982 39.4891C12.0528 39.4891 10.9622 38.3985 10.9622 37.0532C10.9622 35.7078 12.0528 34.6172 13.3982 34.6172C14.7435 34.6172 15.8341 35.7078 15.8341 37.0532C15.8342 38.3985 14.7435 39.4891 13.3982 39.4891Z" fill="black"/>
<path d="M31.9116 32.6683C29.4899 32.6683 27.5269 34.6315 27.5269 37.0531C27.5269 39.4747 29.49 41.4378 31.9116 41.4378C34.3332 41.4378 36.2963 39.4746 36.2963 37.0531C36.2963 34.6315 34.3332 32.6683 31.9116 32.6683ZM31.9116 39.4891C30.5662 39.4891 29.4756 38.3985 29.4756 37.0532C29.4756 35.7078 30.5662 34.6172 31.9116 34.6172C33.2569 34.6172 34.3475 35.7078 34.3475 37.0532C34.3476 38.3985 33.2569 39.4891 31.9116 39.4891Z" fill="black"/>
<path d="M41.8016 7.09063C41.5987 6.86897 41.3211 6.73021 41.0221 6.70084L9.30571 6.26237L8.42876 3.58276C7.81096 1.79148 6.13354 0.582183 4.23884 0.562134H0.974637C0.436478 0.562134 0.000244141 0.998368 0.000244141 1.53653C0.000244141 2.07469 0.436478 2.51092 0.974637 2.51092H4.23884C5.29828 2.53433 6.23118 3.2146 6.57742 4.21613L12.7648 22.8757L12.2777 23.9963C11.7343 25.3975 11.8975 26.9745 12.7161 28.2348C13.527 29.4727 14.8911 30.2366 16.3701 30.2811H35.3221C35.8602 30.2811 36.2965 29.8449 36.2965 29.3067C36.2965 28.7685 35.8602 28.3323 35.3221 28.3323H16.37C15.5348 28.3114 14.7659 27.872 14.3238 27.163C13.8866 26.4627 13.7968 25.5999 14.0802 24.8244L14.47 23.9475L34.981 21.8038C37.2339 21.5557 39.0872 19.917 39.6093 17.7113L41.9479 7.91872C42.0533 7.63672 41.9973 7.31957 41.8016 7.09063ZM37.7092 17.2729C37.3929 18.6928 36.1875 19.7401 34.7374 19.8551L14.47 21.95L9.93907 8.21115L39.8041 8.64963L37.7092 17.2729Z" fill="black"/>
</g>
<defs>
<clipPath id="clip0">
<rect width="42" height="42" fill="white" transform="translate(0.000244141)"/>
</clipPath>
</defs>
</svg>
