<svg width="25" height="25" viewBox="0 0 25 25" fill="none" xmlns="http://www.w3.org/2000/svg">
<path d="M12.5 4.07608C12.7989 4.07608 13.0435 3.83152 13.0435 3.53261V3.26087C13.0435 2.96196 12.7989 2.71739 12.5 2.71739C12.2011 2.71739 11.9565 2.96196 11.9565 3.26087V3.53261C11.9565 3.83152 12.2011 4.07608 12.5 4.07608Z" fill="#F49D9C"/>
<path d="M12.5 20.9239C12.2011 20.9239 11.9565 21.1685 11.9565 21.4674V21.7391C11.9565 22.038 12.2011 22.2826 12.5 22.2826C12.7989 22.2826 13.0435 22.038 13.0435 21.7391V21.4674C13.0435 21.1685 12.7989 20.9239 12.5 20.9239Z" fill="#F49D9C"/>
<path d="M3.5325 11.9565H3.26076C2.96185 11.9565 2.71729 12.2011 2.71729 12.5C2.71729 12.7989 2.96185 13.0435 3.26076 13.0435H3.5325C3.83141 13.0435 4.07598 12.7989 4.07598 12.5C4.07598 12.2011 3.83141 11.9565 3.5325 11.9565Z" fill="#F49D9C"/>
<path d="M21.739 11.9565H21.4673C21.1684 11.9565 20.9238 12.2011 20.9238 12.5C20.9238 12.7989 21.1684 13.0435 21.4673 13.0435H21.739C22.038 13.0435 22.2825 12.7989 22.2825 12.5C22.2825 12.2011 22.038 11.9565 21.739 11.9565Z" fill="#F49D9C"/>
<path d="M6.35848 5.59783C6.14109 5.38044 5.81501 5.38044 5.59761 5.59783C5.38022 5.81522 5.38022 6.1413 5.59761 6.3587L5.78783 6.54891C5.89653 6.65761 6.0324 6.71196 6.16827 6.71196C6.30414 6.71196 6.44001 6.65761 6.5487 6.54891C6.76609 6.33152 6.76609 6.00544 6.5487 5.78804L6.35848 5.59783Z" fill="#F49D9C"/>
<path d="M5.78783 18.4511L5.59761 18.6413C5.38022 18.8587 5.38022 19.1848 5.59761 19.4022C5.70631 19.5109 5.84218 19.5652 5.97805 19.5652C6.11392 19.5652 6.24979 19.5109 6.35848 19.4022L6.5487 19.212C6.76609 18.9946 6.76609 18.6685 6.5487 18.4511C6.33131 18.2337 6.00522 18.2337 5.78783 18.4511Z" fill="#F49D9C"/>
<path d="M18.6413 5.59783L18.4511 5.78804C18.2337 6.00544 18.2337 6.33152 18.4511 6.54891C18.5598 6.65761 18.6957 6.71196 18.8316 6.71196C18.9674 6.71196 19.1033 6.65761 19.212 6.54891L19.4022 6.3587C19.6196 6.1413 19.6196 5.81522 19.4022 5.59783C19.1848 5.38044 18.8587 5.38044 18.6413 5.59783Z" fill="#F49D9C"/>
<path d="M13.0435 12.2826V7.33695C13.0435 7.03804 12.7989 6.79347 12.5 6.79347C12.2011 6.79347 11.9565 7.03804 11.9565 7.33695V12.5C11.9565 12.6359 12.0109 12.7717 12.1196 12.8804L18.0707 18.8315C18.1793 18.9402 18.3152 18.9946 18.4511 18.9946C18.587 18.9946 18.7228 18.9402 18.8315 18.8315C19.0489 18.6141 19.0489 18.288 18.8315 18.0706L13.0435 12.2826Z" fill="#F49D9C"/>
<path d="M12.5 0C5.59783 0 0 5.59783 0 12.5C0 19.4022 5.59783 25 12.5 25C19.4022 25 25 19.4022 25 12.5C25 5.59783 19.4022 0 12.5 0ZM12.5 23.913C6.19565 23.913 1.08696 18.8043 1.08696 12.5C1.08696 6.19565 6.19565 1.08696 12.5 1.08696C18.8043 1.08696 23.913 6.19565 23.913 12.5C23.913 18.8043 18.8043 23.913 12.5 23.913Z" fill="#F49D9C"/>
</svg>
