<svg width="65" height="65" viewBox="0 0 65 65" fill="none" xmlns="http://www.w3.org/2000/svg">
<path d="M60.4497 29.3722L58.7665 22.6393C59.2267 22.5415 59.572 22.1333 59.572 21.6441V20.5585C59.572 18.2015 57.6544 16.284 55.2975 16.284H47.6305V14.0448C47.6305 12.885 46.687 11.9415 45.5272 11.9415H6.44566C5.28582 11.9415 4.3423 12.885 4.3423 14.0448V32.5C4.3423 33.062 4.79794 33.5178 5.36009 33.5178C5.92211 33.5178 6.37787 33.0621 6.37787 32.5V14.0448C6.37787 14.0074 6.40821 13.977 6.44566 13.977H45.527C45.5645 13.977 45.5948 14.0074 45.5948 14.0448V32.5002C45.5948 33.0623 46.0505 33.518 46.6126 33.518C47.1746 33.518 47.6304 33.0624 47.6304 32.5002V31.3465H59.6362C59.6372 31.3465 59.638 31.3467 59.6389 31.3467C59.6399 31.3467 59.6408 31.3466 59.6417 31.3466C61.119 31.3476 62.3735 32.3173 62.8043 33.6535H59.6397C59.0776 33.6535 58.6219 34.1091 58.6219 34.6713V36.8424C58.6219 38.6008 60.0524 40.0314 61.8108 40.0314H62.9643V44.5094H60.3031C59.4289 41.9852 57.0294 40.1669 54.2117 40.1669C51.3939 40.1669 48.9943 41.9852 48.1202 44.5094H47.6301V36.8423C47.6301 36.2803 47.1745 35.8245 46.6124 35.8245C46.0503 35.8245 45.5946 36.2801 45.5946 36.8423V44.5091H24.4787C23.6045 41.9849 21.205 40.1667 18.3873 40.1667C15.5695 40.1667 13.1699 41.9849 12.2958 44.5091H6.44566C6.40821 44.5091 6.37787 44.4788 6.37787 44.4413V42.2023H10.7881C11.3501 42.2023 11.8059 41.7466 11.8059 41.1845C11.8059 40.6223 11.3502 40.1667 10.7881 40.1667H1.01778C0.455762 40.1667 0 40.6223 0 41.1845C0 41.7466 0.455635 42.2023 1.01778 42.2023H4.34243V44.4413C4.34243 45.6012 5.28595 46.5447 6.44579 46.5447H11.9434C11.9431 46.5673 11.9416 46.5898 11.9416 46.6125C11.9416 50.1667 14.8332 53.0581 18.3873 53.0581C21.9413 53.0581 24.8329 50.1667 24.8329 46.6125C24.8329 46.5896 24.8314 46.5673 24.8311 46.5447H47.7678C47.7675 46.5673 47.766 46.5898 47.766 46.6125C47.766 50.1667 50.6576 53.0581 54.2117 53.0581C57.7657 53.0581 60.6573 50.1667 60.6573 46.6125C60.6573 46.5896 60.6558 46.5673 60.6555 46.5447H63.9821C64.5441 46.5447 64.9999 46.0891 64.9999 45.5269V34.671C65 31.9908 63.0224 29.7639 60.4497 29.3722ZM47.6305 18.3195H55.2975C56.5321 18.3195 57.5366 19.3239 57.5366 20.5585V20.6263H47.6305V18.3195ZM47.6305 29.3111V22.6618H56.674L58.3364 29.3111H47.6305ZM18.3873 51.023C15.9555 51.023 13.977 49.0447 13.977 46.6127C13.977 44.1808 15.9555 42.2025 18.3873 42.2025C20.819 42.2025 22.7975 44.1808 22.7975 46.6127C22.7975 49.0447 20.819 51.023 18.3873 51.023ZM54.2119 51.023C51.7801 51.023 49.8017 49.0447 49.8017 46.6127C49.8017 44.1808 51.7801 42.2025 54.2119 42.2025C56.6437 42.2025 58.6221 44.1808 58.6221 46.6127C58.6221 49.0447 56.6437 51.023 54.2119 51.023ZM62.9646 37.9958H61.8111C61.175 37.9958 60.6576 37.4783 60.6576 36.8423V35.6888H62.9644V37.9958H62.9646Z" fill="#F49D9C"/>
<path d="M18.3871 44.5094C17.2272 44.5094 16.2837 45.4529 16.2837 46.6127C16.2837 47.7726 17.2272 48.7161 18.3871 48.7161C19.5469 48.7161 20.4904 47.7726 20.4904 46.6127C20.4904 45.4529 19.5469 44.5094 18.3871 44.5094Z" fill="#F49D9C"/>
<path d="M54.2118 44.5094C53.0519 44.5094 52.1084 45.4529 52.1084 46.6127C52.1084 47.7726 53.0519 48.7161 54.2118 48.7161C55.3716 48.7161 56.3151 47.7726 56.3151 46.6127C56.3151 45.4529 55.3716 44.5094 54.2118 44.5094Z" fill="#F49D9C"/>
<path d="M42.2703 40.1671H27.072C26.51 40.1671 26.0542 40.6227 26.0542 41.1849C26.0542 41.747 26.5098 42.2027 27.072 42.2027H42.2703C42.8323 42.2027 43.2881 41.747 43.2881 41.1849C43.2881 40.6227 42.8324 40.1671 42.2703 40.1671Z" fill="#F49D9C"/>
<path d="M16.2163 35.8246H3.18917C2.62715 35.8246 2.17139 36.2803 2.17139 36.8424C2.17139 37.4046 2.62702 37.8602 3.18917 37.8602H16.2163C16.7784 37.8602 17.2341 37.4046 17.2341 36.8424C17.2341 36.2803 16.7784 35.8246 16.2163 35.8246Z" fill="#F49D9C"/>
<path d="M35.3908 22.0098C34.9934 21.6125 34.3489 21.6125 33.9515 22.01L24.9008 31.0606L20.1925 26.3523C19.795 25.9548 19.1506 25.9548 18.7532 26.3523C18.3557 26.7498 18.3557 27.3941 18.7532 27.7915L24.1812 33.2196C24.3799 33.4184 24.6404 33.5176 24.9008 33.5176C25.1612 33.5176 25.4218 33.4184 25.6203 33.2196L35.3907 23.4492C35.7881 23.0516 35.7882 22.4073 35.3908 22.0098Z" fill="#F49D9C"/>
</svg>
