<svg width="34" height="34" viewBox="0 0 34 34" fill="none" xmlns="http://www.w3.org/2000/svg">
<path d="M20.1407 3.74853C19.3556 2.59389 18.6628 1.53163 18.0162 0.561734C17.9238 0.423177 17.7853 0.284621 17.6467 0.19225C17.0925 -0.177233 16.3535 0.00750826 15.9841 0.561734C15.3836 1.53163 14.6909 2.54771 13.8595 3.74853C10.2109 9.10604 4.76099 17.1885 4.76099 21.807C4.76099 25.1786 6.14655 28.2268 8.36345 30.4437C10.5804 32.6144 13.6286 34 17.0001 34C20.3717 34 23.4199 32.6144 25.6368 30.3975C27.8537 28.1806 29.2393 25.1324 29.2393 21.7608C29.2393 17.1423 23.7894 9.10604 20.1407 3.74853ZM23.9741 28.7349C22.1729 30.5361 19.7251 31.5983 17.0001 31.5983C14.2752 31.5983 11.8274 30.4899 10.0261 28.7349C8.2249 26.9336 7.16263 24.4858 7.16263 21.7608C7.16263 17.8813 12.3816 10.1683 15.8455 5.04172C16.2612 4.44131 16.6306 3.8409 17.0001 3.33286C17.3696 3.8409 17.7391 4.44131 18.1548 5.04172C21.6187 10.2145 26.8376 17.8813 26.8376 21.7608C26.8376 24.4858 25.7292 26.9336 23.9741 28.7349Z" fill="black"/>
<path d="M24.159 20.9295C23.5124 20.8833 22.9582 21.3914 22.912 22.038C22.8658 23.054 22.5425 24.0239 22.0344 24.8553C21.5264 25.6866 20.7874 26.4256 19.9099 26.8874C19.3557 27.2107 19.1248 27.9497 19.4481 28.5039C19.8175 29.1505 20.5565 29.3353 21.1107 29.012C22.3577 28.3192 23.3738 27.3031 24.0666 26.1485C24.8056 24.9938 25.2212 23.6083 25.2674 22.1765C25.3136 21.5299 24.8056 20.9757 24.159 20.9295Z" fill="black"/>
</svg>
