<svg width="35" height="31" viewBox="0 0 35 31" fill="none" xmlns="http://www.w3.org/2000/svg">
<path d="M32.4464 3.03748C30.7201 1.07871 28.3253 0 25.7031 0C22.0153 0 19.6805 2.20254 18.3712 4.05029C18.0316 4.52977 17.7426 5.01054 17.5 5.46294C17.2574 5.01054 16.9685 4.52977 16.6288 4.05029C15.3195 2.20254 12.9847 0 9.29688 0C6.67475 0 4.27991 1.07878 2.55356 3.03755C0.906924 4.90608 0 7.40858 0 10.084C0 12.9963 1.13702 15.7051 3.57827 18.6084C5.7601 21.2034 8.89896 23.8781 12.5337 26.9754C13.8881 28.1296 15.2887 29.3232 16.7798 30.6278L16.8246 30.667C17.0179 30.8363 17.259 30.9209 17.5 30.9209C17.741 30.9209 17.9821 30.8362 18.1754 30.667L18.2202 30.6278C19.7113 29.3232 21.1119 28.1297 22.4665 26.9753C26.101 23.8782 29.2399 21.2034 31.4217 18.6084C33.863 15.705 35 12.9963 35 10.084C35 7.40858 34.0931 4.90608 32.4464 3.03748ZM21.1362 25.4145C19.9687 26.4094 18.767 27.4334 17.5 28.5348C16.233 27.4335 15.0313 26.4095 13.8636 25.4144C6.75015 19.3527 2.05078 15.3482 2.05078 10.084C2.05078 7.90815 2.77573 5.88718 4.09213 4.39346C5.42363 2.88278 7.272 2.05078 9.29688 2.05078C12.1084 2.05078 13.9259 3.78287 14.9554 5.23592C15.8789 6.53912 16.3607 7.85285 16.5251 8.35714C16.6625 8.77926 17.0561 9.06493 17.5 9.06493C17.9439 9.06493 18.3375 8.77926 18.4749 8.35714C18.6393 7.85285 19.1211 6.53912 20.0446 5.23585C21.0741 3.78287 22.8916 2.05078 25.7031 2.05078C27.728 2.05078 29.5764 2.88278 30.9078 4.39346C32.2243 5.88718 32.9492 7.90815 32.9492 10.084C32.9492 15.3482 28.2499 19.3527 21.1362 25.4145Z" fill="black"/>
</svg>
