<svg width="35" height="31" viewBox="0 0 35 31" fill="none" xmlns="http://www.w3.org/2000/svg">
<path d="M25.7031 0C23.8039 0 22.0626 0.601836 20.5278 1.78883C19.0564 2.92681 18.0767 4.37623 17.5 5.4302C16.9233 4.37616 15.9436 2.92681 14.4722 1.78883C12.9374 0.601836 11.1961 0 9.29688 0C3.99684 0 0 4.33515 0 10.084C0 16.2947 4.98634 20.544 12.535 26.9768C13.8169 28.0692 15.2698 29.3075 16.78 30.6281C16.9791 30.8025 17.2348 30.8984 17.5 30.8984C17.7652 30.8984 18.0209 30.8025 18.22 30.6282C19.7303 29.3074 21.1832 28.0692 22.4658 26.9761C30.0137 20.544 35 16.2947 35 10.084C35 4.33515 31.0032 0 25.7031 0Z" fill="#F49D9C"/>
</svg>
