<svg width="23" height="25" viewBox="0 0 23 25" fill="none" xmlns="http://www.w3.org/2000/svg">
<path d="M20.9534 8.68149L18.5028 7.78955C19.3888 7.05742 19.7671 5.89614 19.4959 4.79263C18.9629 2.62451 16.3193 1.80147 14.6492 3.27788L12.9572 4.77358L12.6225 2.53042C12.2916 0.321974 9.73478 -0.740526 7.9361 0.575392C7.03673 1.23335 6.55831 2.36758 6.77047 3.51924L4.46002 2.67832C3.3233 2.2645 2.06163 2.85278 1.64781 3.98965L0.647325 6.73852C0.509191 7.11806 0.704894 7.53779 1.08448 7.67588C1.23844 7.73188 12.3512 11.7766 12.5144 11.836C12.0519 11.836 1.9234 11.836 1.47779 11.836C1.07389 11.836 0.746446 12.1634 0.746446 12.5673V22.806C0.746446 24.0158 1.73067 25 2.94044 25H8.79112H11.7165H17.5671C18.7769 25 19.7611 24.0158 19.7611 22.806V14.4736L20.3269 14.6796C20.7047 14.8172 21.1255 14.6236 21.2643 14.2425L22.2648 11.4936C22.6785 10.3567 22.0902 9.09526 20.9534 8.68149ZM8.05973 23.5373H2.94039C2.53712 23.5373 2.20904 23.2093 2.20904 22.806V13.2987H8.05973V23.5373ZM10.9851 23.5373H9.52242V13.2987H10.9851V23.5373ZM15.6179 4.37378C16.4663 3.62373 17.8057 4.04448 18.0755 5.14189C18.3632 6.31196 17.2323 7.32651 16.1004 6.91518C15.1376 6.56474 14.6864 6.40054 13.7223 6.04961L15.6179 4.37378ZM8.79967 1.75596C9.71373 1.08731 11.0085 1.62988 11.176 2.74731L11.551 5.25928C11.2811 5.16103 9.43863 4.49038 9.17315 4.3938C8.04112 3.98154 7.82731 2.46719 8.79967 1.75596ZM9.1442 9.05283L2.27193 6.55151L3.02233 4.48989C3.16026 4.11094 3.58082 3.91494 3.95973 4.05278C4.72877 4.33266 9.90753 6.21758 10.1447 6.3039L9.1442 9.05283ZM11.8931 10.0534L10.5187 9.55312L11.5192 6.80425L12.8937 7.30454L11.8931 10.0534ZM18.2984 22.806C18.2984 23.2093 17.9703 23.5373 17.5671 23.5373H12.4478V13.2987H16.533L18.2984 13.9413V22.806H18.2984ZM20.8902 10.9933L20.1399 13.0549L13.2676 10.5536L14.2681 7.80473L20.4531 10.0559C20.8321 10.1938 21.0281 10.6144 20.8902 10.9933Z" fill="#F49D9C"/>
</svg>
