<svg width="36" height="34" viewBox="0 0 36 34" fill="none" xmlns="http://www.w3.org/2000/svg">
<g clip-path="url(#clip0)">
<path d="M26.2553 0H9.7451C4.3717 0 0.000244141 4.12859 0.000244141 9.20347V24.7967C0.000244141 29.8713 4.3717 33.9999 9.7451 33.9999H26.2556C31.6287 33.9999 36.0002 29.8713 36.0002 24.7967V9.20347C36.0002 4.12859 31.6287 0 26.2553 0V0ZM18.0002 26.2966C12.5724 26.2966 8.15675 22.1262 8.15675 17C8.15675 11.8737 12.5724 7.70337 18.0002 7.70337C23.428 7.70337 27.8437 11.8737 27.8437 17C27.8437 22.1262 23.428 26.2966 18.0002 26.2966ZM28.079 9.89581C26.475 9.89581 25.1704 8.66366 25.1704 7.14877C25.1704 5.63388 26.475 4.40148 28.079 4.40148C29.683 4.40148 30.9879 5.63388 30.9879 7.14877C30.9879 8.66366 29.683 9.89581 28.079 9.89581Z" fill="#E8ACAB"/>
<path d="M18.0003 9.69659C13.7365 9.69659 10.2673 12.9728 10.2673 17C10.2673 21.0269 13.7365 24.3033 18.0003 24.3033C22.2644 24.3033 25.7333 21.0269 25.7333 17C25.7333 12.9728 22.2644 9.69659 18.0003 9.69659Z" fill="#E8ACAB"/>
<path d="M28.0792 6.39496C27.6392 6.39496 27.281 6.73321 27.281 7.14877C27.281 7.56433 27.6392 7.90258 28.0792 7.90258C28.5194 7.90258 28.8776 7.56459 28.8776 7.14877C28.8776 6.73296 28.5194 6.39496 28.0792 6.39496Z" fill="#E8ACAB"/>
</g>
<defs>
<clipPath id="clip0">
<rect width="36" height="34" fill="white" transform="translate(0.000244141)"/>
</clipPath>
</defs>
</svg>
