<svg width="34" height="34" viewBox="0 0 34 34" fill="none" xmlns="http://www.w3.org/2000/svg">
<g clip-path="url(#clip0)">
<path d="M20.7754 18.2892V33.6686H28.4332C30.0167 33.6686 31.3687 32.3804 31.3687 30.7969V18.2892H20.7754Z" fill="#F49D9C"/>
<path d="M2.52441 18.2892V30.7969C2.52441 32.3804 3.81258 33.6686 5.39609 33.6686H13.1177V18.2892H2.52441Z" fill="#F49D9C"/>
<path d="M30.4115 8.65316H26.4943C27.1017 7.85075 27.476 6.86302 27.476 5.78148C27.476 3.14254 25.3288 0.995361 22.6898 0.995361C19.3496 0.995361 18.3825 3.4015 16.9465 7.04521C15.5105 3.4015 14.5434 0.995361 11.2031 0.995361C8.56421 0.995361 6.41703 3.14254 6.41703 5.78148C6.41703 6.86302 6.7913 7.85075 7.39869 8.65316H3.48154C1.89803 8.65316 0.609863 9.94133 0.609863 11.5248V13.5031C0.609863 15.0866 1.89803 16.3748 3.48154 16.3748H13.1176V8.65316H11.2031C9.61964 8.65316 8.33148 7.36499 8.33148 5.78148C8.33148 4.19798 9.61964 2.90981 11.2031 2.90981C13.1653 2.90981 13.7233 4.08669 15.1901 7.80812C15.2923 8.06798 15.4198 8.37627 15.53 8.65316H15.032C15.032 22.9274 15.032 19.3881 15.032 33.6686H18.8609C18.8609 11.2622 18.8609 14.8764 18.8609 8.65316H18.3631C18.4733 8.3762 18.6007 8.06798 18.703 7.80812C20.1697 4.08669 20.7277 2.90981 22.6898 2.90981C24.2733 2.90981 25.5615 4.19798 25.5615 5.78148C25.5615 7.36499 24.2733 8.65316 22.6898 8.65316H20.7754V16.3748H30.4115C31.995 16.3748 33.2831 15.0866 33.2831 13.5031V11.5248C33.2831 9.94133 31.995 8.65316 30.4115 8.65316Z" fill="#F49D9C"/>
</g>
<defs>
<clipPath id="clip0">
<rect width="32.6733" height="32.6733" fill="white" transform="translate(0.609863 0.995361)"/>
</clipPath>
</defs>
</svg>
