<svg width="37" height="37" viewBox="0 0 37 37" fill="none" xmlns="http://www.w3.org/2000/svg">
<path d="M24.7088 4.23354C19.0644 -1.41086 9.87776 -1.41086 4.23336 4.23354C-1.40982 9.87917 -1.40982 19.0646 4.23336 24.7102C9.25985 29.7355 17.0883 30.2739 22.7291 26.3499C22.8478 26.9115 23.1194 27.4474 23.5562 27.8842L31.7763 36.1043C32.9742 37.2997 34.9099 37.2997 36.1016 36.1043C37.2983 34.9076 37.2983 32.9719 36.1016 31.7789L27.8816 23.5564C27.4472 23.1233 26.9101 22.8504 26.3484 22.7317C30.2749 17.0898 29.7365 9.26248 24.7088 4.23354ZM22.1136 22.115C17.8996 26.3291 11.0414 26.3291 6.82858 22.115C2.617 17.901 2.617 11.044 6.82858 6.82999C11.0414 2.61719 17.8996 2.61719 22.1136 6.82999C26.3276 11.044 26.3276 17.901 22.1136 22.115Z" fill="#E8ACAB"/>
</svg>
