<svg width="35" height="34" viewBox="0 0 35 34" fill="none" xmlns="http://www.w3.org/2000/svg">
<path d="M17.6831 0H17.6746C8.32096 0 0.7146 7.60848 0.7146 16.9643C0.7146 20.6752 1.91058 24.1147 3.94418 26.9075L1.83 33.2097L8.35065 31.1252C11.0331 32.9022 14.233 33.9286 17.6831 33.9286C27.0368 33.9286 34.6432 26.318 34.6432 16.9643C34.6432 7.6106 27.0368 0 17.6831 0ZM27.5542 23.9557C27.145 25.1114 25.5206 26.0699 24.225 26.3498C23.3386 26.5385 22.1808 26.6891 18.2832 25.0732C13.2979 23.0078 10.0874 17.9419 9.83714 17.6132C9.59752 17.2845 7.82264 14.9307 7.82264 12.4963C7.82264 10.0619 9.05891 8.87656 9.55723 8.36763C9.9665 7.94989 10.6429 7.75904 11.2918 7.75904C11.5018 7.75904 11.6905 7.76964 11.8601 7.77812C12.3585 7.79933 12.6087 7.82902 12.9374 8.61574C13.3466 9.60179 14.3433 12.0362 14.462 12.2864C14.5829 12.5366 14.7038 12.8759 14.5341 13.2046C14.3751 13.5439 14.2351 13.6944 13.9849 13.9828C13.7347 14.2712 13.4972 14.4917 13.247 14.8013C13.0179 15.0706 12.7592 15.359 13.0476 15.8574C13.336 16.3451 14.3327 17.9715 15.8001 19.2778C17.6937 20.9636 19.229 21.5022 19.7782 21.7312C20.1875 21.9009 20.6752 21.8606 20.9742 21.5425C21.3538 21.1333 21.8224 20.4547 22.2995 19.7867C22.6388 19.3075 23.0672 19.2481 23.5167 19.4177C23.9748 19.5768 26.3985 20.7749 26.8969 21.023C27.3952 21.2732 27.7239 21.392 27.8447 21.6019C27.9635 21.8118 27.9635 22.7979 27.5542 23.9557Z" fill="#E8ACAB"/>
</svg>
