<?xml version="1.0" standalone="no"?>
<!DOCTYPE svg PUBLIC "-//W3C//DTD SVG 1.1//EN" "http://www.w3.org/Graphics/SVG/1.1/DTD/svg11.dtd" >
<svg xmlns="http://www.w3.org/2000/svg">
<metadata>Generated by IcoMoon</metadata>
<defs>
<font id="icons" horiz-adv-x="1024">
<font-face units-per-em="1024" ascent="960" descent="-64" />
<missing-glyph horiz-adv-x="1024" />
<glyph unicode="&#x20;" horiz-adv-x="512" d="" />
<glyph unicode="&#xe900;" glyph-name="checked" d="M994.714 820.015c-15.065 15.090-39.506 15.116-54.571 0.064l-462.983-461.765-167.045 181.428c-14.434 15.666-38.838 16.683-54.532 2.249-15.682-14.43-16.686-38.846-2.252-54.53l194.252-210.96c7.115-7.733 17.072-12.222 27.57-12.444 0.279-0.008 0.553-0.008 0.823-0.008 10.199 0 20.013 4.051 27.247 11.256l491.418 490.128c15.102 15.050 15.127 39.492 0.074 54.582zM985.407 486.593c-21.316 0-38.593-17.273-38.593-38.593 0-239.768-195.047-434.815-434.815-434.815-239.752 0-434.814 195.047-434.814 434.815 0 239.752 195.062 434.814 434.814 434.814 21.316 0 38.593 17.276 38.593 38.592 0 21.318-17.277 38.594-38.593 38.594-282.32 0-512-229.68-512-512 0-282.309 229.68-512 512-512 282.309 0 512 229.691 512 512 0 21.316-17.277 38.593-38.593 38.593z" />
<glyph unicode="&#xe901;" glyph-name="drop" d="M606.59 847.104c-23.645 34.775-44.511 66.768-63.985 95.979-2.783 4.173-6.954 8.346-11.128 11.128-16.691 11.128-38.948 5.564-50.074-11.128-18.086-29.211-38.948-59.813-63.988-95.979-109.887-161.356-274.026-404.781-274.026-543.879 0-101.542 41.73-193.349 108.498-260.117 66.769-65.376 158.574-107.107 260.116-107.107 101.545 0 193.349 41.731 260.117 108.499s108.499 158.572 108.499 260.117c0 139.098-164.138 381.132-274.028 542.488zM722.043 94.575c-54.248-54.251-127.97-86.242-210.040-86.242-82.068 0-155.79 33.382-210.040 86.242-54.248 54.248-86.241 127.97-86.241 210.040 0 116.841 157.183 349.139 261.508 503.54 12.52 18.083 23.645 36.166 34.774 51.467 11.128-15.301 22.257-33.384 34.777-51.467 104.325-155.793 261.506-386.699 261.506-503.54 0-82.071-33.382-155.793-86.242-210.040zM727.612 329.656c-19.474 1.391-36.165-13.911-37.557-33.385-1.391-30.603-11.128-59.814-26.431-84.85-15.3-25.037-37.557-47.294-63.985-61.205-16.691-9.737-23.645-31.991-13.908-48.682 11.125-19.474 33.382-25.040 50.074-15.303 37.557 20.866 68.159 51.468 89.025 86.242 22.257 34.774 34.774 76.505 36.165 119.627 1.391 19.474-13.908 36.165-33.382 37.557z" />
<glyph unicode="&#xe902;" glyph-name="arrow-down" d="M540.114 191.081l472.321 473.631c15.468 15.518 15.44 40.642-0.080 56.134-15.519 15.48-40.658 15.44-56.132-0.080l-444.211-445.439-444.206 445.455c-15.48 15.518-40.602 15.558-56.122 0.080-7.78-7.766-11.67-17.94-11.67-28.114 0-10.148 3.864-20.282 11.59-28.034l472.308-473.632c7.436-7.473 17.556-11.668 28.1-11.668s20.652 4.206 28.102 11.668z" />
<glyph unicode="&#xe903;" glyph-name="avatar" d="M508.299 408.24c1.058 0 2.119 0 3.391 0 0.424 0 0.848 0 1.273 0 0.636 0 1.485 0 2.121 0 62.13 1.061 112.386 22.903 149.497 64.675 81.64 92.031 68.069 249.799 66.584 264.854-5.303 113.024-58.739 167.097-102.846 192.331-32.868 18.873-71.248 29.051-114.083 29.899h-1.485c-0.212 0-0.636 0-0.848 0h-1.273c-23.537 0-69.764-3.817-114.083-29.051-44.532-25.234-98.816-79.308-104.116-193.18-1.485-15.056-15.058-172.824 66.584-264.854 36.896-41.772 87.152-63.615 149.285-64.675zM349.047 732.468c0 0.636 0.212 1.272 0.212 1.696 6.997 152.042 114.932 168.369 161.158 168.369h0.848c0.424 0 1.061 0 1.697 0 57.254-1.272 154.585-24.598 161.161-168.369 0-0.636 0-1.272 0.212-1.696 0.212-1.484 15.055-145.679-52.378-221.594-26.719-30.11-62.345-44.956-109.207-45.38-0.424 0-0.636 0-1.061 0s-0.636 0-1.061 0c-46.651 0.424-82.488 15.27-108.995 45.38-67.221 75.491-52.799 220.322-52.587 221.594zM947.456 146.569c0 0.212 0 0.424 0 0.636 0 1.697-0.212 3.391-0.212 5.3-1.273 41.986-4.028 140.166-96.059 171.552-0.636 0.212-1.485 0.424-2.121 0.636-95.637 24.386-175.155 79.518-176.004 80.155-12.934 9.118-30.747 5.937-39.865-6.997-9.118-12.937-5.939-30.749 6.997-39.865 3.604-2.545 88.001-61.284 193.604-88.427 49.408-17.601 54.921-70.4 56.405-118.75 0-1.907 0-3.604 0.212-5.3 0.212-19.085-1.061-48.56-4.454-65.524-34.35-19.51-169.004-86.942-373.848-86.942-203.993 0-339.495 67.645-374.059 87.155-3.393 16.964-4.877 46.438-4.453 65.524 0 1.697 0.212 3.394 0.212 5.3 1.485 48.35 6.998 101.149 56.406 118.75 105.601 27.143 189.998 86.094 193.604 88.427 12.934 9.116 16.116 26.929 6.997 39.865-9.118 12.934-26.931 16.116-39.865 6.997-0.848-0.636-79.945-55.769-176.004-80.155-0.848-0.212-1.484-0.424-2.12-0.636-92.031-31.598-94.788-129.777-96.060-171.552 0-1.909 0-3.604-0.212-5.3 0-0.212 0-0.424 0-0.636-0.212-11.028-0.424-67.645 10.815-96.061 2.121-5.513 5.937-10.177 11.027-13.358 6.361-4.242 158.827-101.361 413.925-101.361 255.1 0 407.564 97.331 413.928 101.361 4.876 3.182 8.904 7.846 11.025 13.358 10.603 28.204 10.391 84.821 10.179 95.849z" />
<glyph unicode="&#xe904;" glyph-name="cart" d="M326.661 163.516c-59.043 0-106.905-47.865-106.905-106.906s47.864-106.903 106.905-106.903c59.041 0 106.903 47.865 106.903 106.903 0.002 59.041-47.862 106.906-106.903 106.906zM326.661-2.782c-32.802 0-59.392 26.59-59.392 59.39 0 32.802 26.59 59.392 59.392 59.392 32.8 0 59.39-26.59 59.39-59.392 0.002-32.8-26.59-59.39-59.39-59.39zM778.035 163.516c-59.043 0-106.903-47.865-106.903-106.906s47.862-106.903 106.903-106.903c59.041 0 106.903 47.865 106.903 106.903 0 59.041-47.862 106.906-106.903 106.906zM778.035-2.782c-32.802 0-59.392 26.59-59.392 59.39 0 32.802 26.59 59.392 59.392 59.392 32.8 0 59.39-26.59 59.39-59.392 0.002-32.8-26.59-59.39-59.39-59.39zM1019.163 787.124c-4.947 5.404-11.715 8.787-19.005 9.503l-773.276 10.69-21.381 65.331c-15.063 43.673-55.96 73.157-102.154 73.646h-79.584c-13.121 0-23.757-10.636-23.757-23.757s10.636-23.757 23.757-23.757h79.584c25.83-0.571 48.575-17.156 57.017-41.575l150.854-454.938-11.876-27.321c-13.249-34.163-9.27-72.611 10.689-103.339 19.771-30.181 53.029-48.806 89.088-49.891h462.068c13.119 0 23.757 10.635 23.757 23.757s-10.637 23.757-23.757 23.757h-462.070c-20.363 0.51-39.109 11.223-49.888 28.509-10.659 17.074-12.849 38.11-5.939 57.017l9.504 21.38 500.078 52.265c54.928 6.049 100.113 46.002 112.842 99.779l57.017 238.752c2.57 6.875 1.204 14.608-3.567 20.19zM919.386 538.87c-7.712-34.619-37.1-60.153-72.455-62.956l-494.139-51.076-110.468 334.966 728.138-10.691-51.076-210.244z" />
<glyph unicode="&#xe905;" glyph-name="favorite-add" d="M751.999 901.486c-55.565 0-106.511-17.608-151.414-52.336-43.049-33.294-71.712-75.7-88.585-106.536-16.873 30.838-45.536 73.242-88.585 106.536-44.904 34.728-95.849 52.336-151.415 52.336-155.064 0-272-126.834-272-295.029 0-181.707 145.886-306.030 366.738-494.235 37.505-31.961 80.012-68.19 124.197-106.827 5.825-5.102 13.306-7.908 21.065-7.908s15.24 2.806 21.065 7.905c44.187 38.643 86.695 74.869 124.22 106.85 220.83 188.185 366.715 312.507 366.715 494.215 0 168.195-116.935 295.029-272.001 295.029z" />
<glyph unicode="&#xe906;" glyph-name="favorites" d="M949.289 812.618c-50.507 57.308-120.572 88.868-197.29 88.868-107.894 0-176.204-64.44-214.51-118.5-9.936-14.028-18.391-28.094-25.489-41.33-7.098 13.236-15.55 27.302-25.489 41.33-38.306 54.060-106.616 118.5-214.511 118.5-76.716 0-146.782-31.562-197.29-88.87-48.176-54.668-74.71-127.884-74.71-206.159 0-85.206 33.266-164.457 104.69-249.4 63.834-75.922 155.668-154.176 262.010-244.795 39.626-33.769 80.603-68.69 124.229-106.859l1.311-1.147c5.655-4.953 12.709-7.428 19.76-7.428s14.105 2.478 19.76 7.428l1.311 1.147c43.625 38.169 84.603 73.087 124.235 106.862 106.335 90.612 198.17 168.869 262.004 244.792 71.425 84.945 104.691 164.194 104.691 249.4 0 78.275-26.533 151.491-74.711 206.161zM618.385 157.93c-34.158-29.108-69.316-59.067-106.385-91.291-37.069 32.221-72.227 62.18-106.391 91.294-208.119 177.348-345.609 294.508-345.609 448.524 0 63.659 21.21 122.787 59.724 166.489 38.956 44.198 93.034 68.54 152.276 68.54 82.257 0 135.432-50.676 165.552-93.188 27.019-38.128 41.115-76.564 45.925-91.318 4.020-12.35 15.536-20.708 28.523-20.708s24.503 8.358 28.523 20.708c4.81 14.754 18.906 53.19 45.925 91.32 30.12 42.51 83.295 93.186 165.552 93.186 59.243 0 113.322-24.342 152.275-68.54 38.517-43.702 59.726-102.83 59.726-166.489 0-154.015-137.488-271.176-345.615-448.527z" />
<glyph unicode="&#xe907;" glyph-name="inst" horiz-adv-x="1084" d="M790.748 960h-497.248c-161.834 0-293.492-124.343-293.492-277.187v-469.631c0-152.835 131.658-277.179 293.492-277.179h497.257c161.825 0 293.484 124.344 293.484 277.179v469.631c0 152.843-131.659 277.187-293.493 277.187v0zM542.124 168.008c-163.473 0-296.462 125.603-296.462 279.992 0 154.392 132.989 279.993 296.462 279.993s296.463-125.601 296.463-279.993c0-154.389-132.99-279.992-296.463-279.992zM845.673 661.961c-48.309 0-87.6 37.109-87.6 82.734s39.291 82.742 87.6 82.742c48.309 0 87.609-37.117 87.609-82.742s-39.301-82.734-87.609-82.734zM542.127 667.962c-128.416 0-232.9-98.672-232.9-219.962 0-121.281 104.484-219.958 232.9-219.958 128.425 0 232.9 98.677 232.9 219.958 0 121.29-104.475 219.962-232.9 219.962zM845.679 767.399c-13.252 0-24.040-10.187-24.040-22.703s10.788-22.703 24.040-22.703c13.258 0 24.046 10.179 24.046 22.703s-10.788 22.703-24.046 22.703z" />
<glyph unicode="&#xe908;" glyph-name="location" d="M512.009 960c-198.811 0-360.554-166.364-360.554-370.853 0-253.776 322.66-626.332 336.396-642.068 12.905-14.783 35.433-14.757 48.313 0 13.736 15.735 336.395 388.292 336.395 642.068-0.003 204.489-161.744 370.853-360.55 370.853zM512.009 402.563c-100.027 0-181.402 83.701-181.402 186.584 0 102.885 81.377 186.585 181.402 186.585 100.022 0 181.399-83.702 181.399-186.585 0-102.886-81.377-186.584-181.399-186.584z" />
<glyph unicode="&#xe909;" glyph-name="serch" d="M683.833 842.834c-156.213 156.213-410.459 156.213-566.672 0-156.179-156.247-156.179-410.46 0-566.705 139.112-139.079 355.769-153.979 511.882-45.38 3.285-15.543 10.802-30.374 22.891-42.463l227.497-227.497c33.153-33.084 86.724-33.084 119.706 0 33.119 33.119 33.119 86.691 0 119.708l-227.494 227.563c-12.022 11.986-26.887 19.539-42.432 22.824 108.669 156.143 93.768 372.77-45.377 511.949zM612.009 347.952c-116.625-116.628-306.431-116.628-423.023 0-116.558 116.625-116.558 306.397 0 423.023 116.593 116.592 306.398 116.592 423.023 0 116.625-116.626 116.625-306.398 0-423.023z" />
<glyph unicode="&#xe90a;" glyph-name="telegram" d="M401.815 313.62l-16.94-235.868c24.236 0 34.732 10.307 47.319 22.684l113.626 107.5 235.438-170.691c43.18-23.823 73.603-11.277 85.251 39.324l154.542 716.895 0.044 0.042c13.696 63.191-23.084 87.901-65.155 72.399l-908.394-344.295c-61.996-23.823-61.057-58.038-10.539-73.541l232.241-71.511 539.446 334.158c25.388 16.643 48.471 7.434 29.484-9.208l-436.362-387.888z" />
<glyph unicode="&#xe90b;" glyph-name="whatsapp" d="M517.357 945.371h-0.249c-273.661 0-496.201-222.602-496.201-496.327 0-108.57 34.991-209.2 94.488-290.91l-61.855-184.384 190.776 60.987c78.481-51.99 172.101-82.019 273.041-82.019 273.663 0 496.204 222.664 496.204 496.327s-222.542 496.327-496.204 496.327zM806.157 244.496c-11.972-33.812-59.497-61.855-97.403-70.045-25.934-5.521-59.807-9.927-173.84 37.35-145.856 60.428-239.786 208.641-247.108 218.258-7.011 9.617-58.939 78.482-58.939 149.706s36.17 105.903 50.749 120.793c11.974 12.222 31.764 17.806 50.749 17.806 6.144 0 11.665-0.31 16.627-0.558 14.582-0.621 21.902-1.489 31.519-24.506 11.972-28.849 41.133-100.073 44.605-107.393 3.537-7.32 7.074-17.247 2.109-26.864-4.652-9.927-8.748-14.33-16.068-22.768s-14.269-14.889-21.589-23.947c-6.703-7.879-14.272-16.317-5.834-30.898 8.438-14.269 37.598-61.853 80.53-100.071 55.401-49.322 100.32-65.080 116.388-71.779 11.975-4.965 26.244-3.786 34.992 5.521 11.106 11.972 24.816 31.826 38.774 51.37 9.927 14.020 22.461 15.758 35.612 10.796 13.403-4.655 84.313-39.708 98.895-46.966 14.579-7.32 24.196-10.796 27.73-16.937 3.476-6.141 3.476-34.992-8.499-68.865z" />
<glyph unicode="&#xe90c;" glyph-name="minus" d="M213.333 384h597.333c23.552 0 42.667 19.115 42.667 42.667s-19.115 42.667-42.667 42.667h-597.333c-23.552 0-42.667-19.115-42.667-42.667s19.115-42.667 42.667-42.667z" />
<glyph unicode="&#xe90d;" glyph-name="plus" d="M213.333 384h256v-256c0-23.552 19.115-42.667 42.667-42.667s42.667 19.115 42.667 42.667v256h256c23.552 0 42.667 19.115 42.667 42.667s-19.115 42.667-42.667 42.667h-256v256c0 23.552-19.115 42.667-42.667 42.667s-42.667-19.115-42.667-42.667v-256h-256c-23.552 0-42.667-19.115-42.667-42.667s19.115-42.667 42.667-42.667z" />
<glyph unicode="&#xe90e;" glyph-name="delivery" d="M952.315 497.275l-26.517 106.069c7.25 1.541 12.69 7.971 12.69 15.678v17.102c0 37.132-30.21 67.34-67.34 67.34h-120.785v35.276c0 18.271-14.864 33.135-33.135 33.135h-615.685c-18.272 0-33.136-14.864-33.136-33.135v-290.74c0-8.854 7.178-16.034 16.034-16.034 8.854 0 16.034 7.179 16.034 16.034v290.74c0 0.589 0.478 1.068 1.068 1.068h615.681c0.591 0 1.068-0.479 1.068-1.068v-290.744c0-8.855 7.179-16.034 16.034-16.034s16.034 7.177 16.034 16.034v18.175h189.138c0.016 0 0.028-0.003 0.043-0.003s0.030 0.002 0.044 0.002c23.273-0.016 43.036-15.292 49.823-36.343h-49.855c-8.855 0-16.034-7.177-16.034-16.034v-34.203c0-27.702 22.536-50.239 50.237-50.239h18.172v-70.546h-41.924c-13.772 39.766-51.573 68.411-95.963 68.411s-82.194-28.645-95.965-68.411h-7.721v120.786c0 8.854-7.177 16.034-16.033 16.034s-16.034-7.177-16.034-16.034v-120.782h-332.657c-13.772 39.766-51.573 68.41-95.963 68.41s-82.194-28.644-95.965-68.41h-92.162c-0.59 0-1.068 0.477-1.068 1.068v35.273h69.478c8.854 0 16.034 7.179 16.034 16.034 0 8.857-7.179 16.034-16.034 16.034h-153.92c-8.854 0-16.034-7.177-16.034-16.034 0-8.855 7.178-16.034 16.034-16.034h52.376v-35.273c0-18.273 14.864-33.137 33.136-33.137h86.609c-0.005-0.356-0.028-0.71-0.028-1.068 0-55.992 45.554-101.543 101.545-101.543 55.989 0 101.543 45.551 101.543 101.543 0 0.361-0.024 0.712-0.028 1.068h361.341c-0.005-0.356-0.028-0.71-0.028-1.068 0-55.992 45.554-101.543 101.545-101.543 55.989 0 101.543 45.551 101.543 101.543 0 0.361-0.024 0.712-0.028 1.068h52.407c8.854 0 16.034 7.177 16.034 16.034v171.022c0.002 42.223-31.153 77.306-71.683 83.476zM750.364 671.397h120.785c19.45 0 35.274-15.823 35.274-35.273v-1.068h-156.059v36.341zM750.364 498.237v104.752h142.47l26.189-104.752h-168.659zM289.671 156.192c-38.31 0-69.479 31.166-69.479 69.479s31.169 69.478 69.479 69.478c38.309 0 69.478-31.166 69.478-69.478 0-38.313-31.169-69.479-69.478-69.479zM854.046 156.192c-38.31 0-69.478 31.166-69.478 69.479s31.167 69.478 69.478 69.478 69.478-31.166 69.478-69.478c0-38.313-31.167-69.479-69.478-69.479zM991.935 361.42h-18.172c-10.021 0-18.172 8.153-18.172 18.172v18.172h36.341v-36.344h0.003zM289.668 258.806c-18.273 0-33.137-14.864-33.137-33.135 0-18.273 14.864-33.137 33.137-33.137 18.271 0 33.135 14.864 33.135 33.137 0 18.271-14.864 33.135-33.135 33.135zM854.044 258.806c-18.273 0-33.137-14.864-33.137-33.135 0-18.273 14.864-33.137 33.137-33.137 18.271 0 33.135 14.864 33.135 33.137 0 18.271-14.864 33.135-33.135 33.135zM665.92 327.214h-239.432c-8.854 0-16.034-7.177-16.034-16.034 0-8.855 7.177-16.034 16.034-16.034h239.432c8.854 0 16.034 7.179 16.034 16.034 0 8.857-7.179 16.034-16.034 16.034zM255.469 395.625h-205.227c-8.854 0-16.034-7.179-16.034-16.034 0-8.857 7.178-16.034 16.034-16.034h205.227c8.855 0 16.034 7.177 16.034 16.034 0 8.855-7.179 16.034-16.034 16.034zM557.541 613.261c-6.261 6.259-16.414 6.259-22.675-0.003l-142.583-142.582-74.174 74.174c-6.262 6.262-16.414 6.262-22.675 0s-6.262-16.412 0-22.673l85.512-85.513c3.13-3.132 7.234-4.695 11.336-4.695s8.208 1.563 11.335 4.695l153.921 153.921c6.261 6.264 6.262 16.414 0.002 22.676z" />
<glyph unicode="&#xe90f;" glyph-name="check" horiz-adv-x="1280" d="M1261.254 899.262c-24.992 24.995-65.51 24.995-90.509 0l-766.76-766.769-294.73 294.732c-24.993 24.995-65.513 24.993-90.51 0-24.995-24.993-24.995-65.513 0-90.508l339.985-339.981c24.985-24.992 65.535-24.973 90.509 0l812.013 812.015c24.998 24.993 24.992 65.516 0 90.51z" />
<glyph unicode="&#xe910;" glyph-name="promo" d="M625.706 409.172v-463.191h230.635c47.691 0 88.41 38.798 88.41 86.489v376.702h-319.045zM76.029 409.172v-376.702c0-47.691 38.797-86.489 86.488-86.489h232.557v463.191h-319.045zM915.923 699.387h-117.977c18.293 24.167 29.566 53.915 29.566 86.488 0 79.479-64.669 144.147-144.149 144.147-100.599 0-129.726-72.467-172.975-182.207-43.249 109.74-72.376 182.207-172.978 182.207-79.477 0-144.145-64.668-144.145-144.147 0-32.573 11.272-62.322 29.565-86.488h-117.975c-47.692 0-86.488-38.797-86.488-86.487v-59.582c0-47.691 38.797-86.489 86.488-86.489h290.215v232.558h-57.66c-47.69 0-86.486 38.797-86.486 86.488s38.796 86.488 86.486 86.488c59.097 0 75.902-35.445 120.079-147.526 3.078-7.826 6.918-17.111 10.237-25.451h-14.999c0-429.907 0-323.311 0-753.406h115.317c0 674.828 0 565.977 0 753.406h-14.993c3.319 8.341 7.156 17.624 10.237 25.451 44.174 112.081 60.979 147.526 120.073 147.526 47.691 0 86.489-38.797 86.489-86.488s-38.798-86.488-86.489-86.488h-57.657v-232.558h290.217c47.691 0 86.486 38.798 86.486 86.489v59.582c0 47.69-38.795 86.487-86.486 86.487z" />
<glyph unicode="&#xe911;" glyph-name="triangle" horiz-adv-x="887" d="M771.598 543.087l-568.79 389.393c-26.268 17.995-52.735 27.52-74.734 27.52-42.531 0-68.84-34.134-68.84-91.27v-841.594c0-57.071 26.276-91.136 68.708-91.136 22.032 0 48.076 9.53 74.402 27.58l569.057 389.383c36.598 25.083 56.866 58.835 56.866 95.083 0.007 36.223-20.029 69.967-56.668 95.042z" />
<glyph unicode="&#xe912;" glyph-name="attention" horiz-adv-x="318" d="M28.204 960h262.709l-43.785-645.473h-175.139l-43.785 645.473zM159.559-39.989c-38.606 0-71.091 12.242-97.457 36.723-25.423 25.423-38.135 56.027-38.135 91.807s12.712 65.441 38.135 88.982c25.423 24.481 57.909 36.723 97.457 36.723s72.033-12.242 97.457-36.723c25.423-23.541 38.135-53.202 38.135-88.982s-13.182-66.383-39.548-91.807c-25.423-24.481-57.438-36.723-96.044-36.723z" />
<glyph unicode="&#xe913;" glyph-name="delivery-location" horiz-adv-x="683" d="M341.347 469.49c92.559 0 167.864 75.295 167.864 167.843s-75.305 167.84-167.864 167.84c-92.56 0-167.864-75.292-167.864-167.84s75.304-167.843 167.864-167.843zM341.347 745.182c59.477 0 107.865-48.382 107.865-107.848s-48.387-107.851-107.865-107.851c-59.478 0-107.864 48.384-107.864 107.851s48.388 107.848 107.864 107.848zM158.561 335.739c45.47-61.556 27.202-37.618 158.172-224.608 11.904-17.060 37.217-17.142 49.191-0.024 131.56 187.877 113.459 164.079 158.191 224.631 45.309 61.344 92.163 124.778 117.842 199.11 37.161 107.601 21.098 214.067-45.23 299.787 0 0 0 0.002-0.003 0.002-60.757 78.498-156.228 125.362-255.386 125.362s-194.63-46.864-255.388-125.366c-66.326-85.72-82.39-192.188-45.226-299.789 25.672-74.332 72.528-137.762 117.838-199.107zM133.401 797.922c49.476 63.922 127.21 102.086 207.936 102.086s158.461-38.164 207.937-102.086l-0.007 0.002c53.535-69.184 66.307-155.66 35.973-243.496-22.678-65.655-66.761-125.334-109.391-183.047-33.195-44.937-23.258-31.191-134.513-190.665-111.138 159.314-101.33 145.746-134.512 190.665-42.63 57.713-86.712 117.395-109.39 183.047-30.336 87.838-17.564 174.312 35.966 243.494zM183.213 205.667c-8.848 14.005-27.376 18.19-41.384 9.339l-85.3-53.873c-18.608-11.752-18.626-38.956 0-50.722l268.8-169.776c9.786-6.182 22.257-6.178 32.043 0l268.8 169.776c18.609 11.752 18.627 38.956 0 50.722l-85.303 53.873c-14.012 8.847-32.536 4.666-41.383-9.339-8.851-14.008-4.666-32.532 9.342-41.38l45.148-28.515-212.627-134.298-212.627 134.298 45.148 28.515c14.008 8.844 18.19 27.372 9.342 41.38z" />
<glyph unicode="&#xe914;" glyph-name="free" horiz-adv-x="942" d="M858.251 604.406l-100.377 36.534c36.291 29.988 51.786 77.554 40.677 122.754-21.832 88.806-130.114 122.518-198.521 62.044l-69.304-61.264-13.709 91.88c-13.554 90.458-118.281 133.978-191.955 80.078-36.838-26.95-56.434-73.408-47.744-120.58l-94.636 34.444c-46.56 16.95-98.238-7.146-115.188-53.712l-40.98-112.594c-5.658-15.546 2.358-32.738 17.906-38.394 6.306-2.294 461.485-167.965 468.17-170.399-18.944 0-433.807 0-452.060 0-16.544 0-29.956-13.41-29.956-29.954v-419.377c0-49.553 40.314-89.866 89.866-89.866h599.108c49.553 0 89.866 40.313 89.866 89.866v341.295l23.175-8.438c15.475-5.636 32.711 2.294 38.396 17.904l40.98 112.595c16.945 46.567-7.152 98.236-53.715 115.184zM330.127-4.088h-209.688c-16.518 0-29.956 13.435-29.956 29.954v389.419h239.644v-419.373zM449.95-4.088h-59.911v419.373h59.911v-419.373zM639.709 780.85c34.75 30.722 89.612 13.488 100.663-31.462 11.784-47.926-34.537-89.482-80.9-72.634-39.436 14.354-57.917 21.080-97.407 35.454l77.644 68.642zM360.434 888.076c37.44 27.388 90.474 5.164 97.334-40.606l15.36-102.89c-11.055 4.024-86.523 31.494-97.397 35.45-46.368 16.886-55.126 78.914-15.298 108.046zM374.546 589.196l-281.488 102.454 30.736 84.444c5.65 15.522 22.876 23.55 38.396 17.904 31.5-11.464 243.622-88.67 253.336-92.206l-40.98-112.596zM487.141 548.213l-56.295 20.491 40.98 112.594 56.3-20.492-40.985-112.593zM749.502 25.866c0-16.519-13.439-29.954-29.954-29.954h-209.687v419.373h167.33l72.311-26.321v-363.098zM855.663 509.714l-30.732-84.443-281.489 102.453 40.98 112.594 253.338-92.208c15.524-5.648 23.552-22.876 17.904-38.396z" />
<glyph unicode="&#xe915;" glyph-name="clock" d="M512 793.044c12.243 0 22.262 10.017 22.262 22.261v11.13c0 12.243-10.019 22.261-22.262 22.261s-22.262-10.018-22.262-22.261v-11.13c0-12.243 10.019-22.261 22.262-22.261zM512 102.957c-12.243 0-22.262-10.019-22.262-22.262v-11.129c0-12.243 10.019-22.262 22.262-22.262s22.262 10.019 22.262 22.262v11.129c0 12.243-10.019 22.262-22.262 22.262zM144.691 470.262h-11.13c-12.243 0-22.261-10.019-22.261-22.262s10.017-22.262 22.261-22.262h11.13c12.243 0 22.261 10.019 22.261 22.262s-10.018 22.262-22.261 22.262zM890.429 470.262h-11.129c-12.243 0-22.262-10.019-22.262-22.262s10.019-22.262 22.262-22.262h11.129c12.247 0 22.262 10.019 22.262 22.262s-10.015 22.262-22.262 22.262zM260.443 730.713c-8.904 8.904-22.261 8.904-31.165 0s-8.904-22.261 0-31.165l7.791-7.791c4.452-4.452 10.018-6.679 15.583-6.679s11.13 2.226 15.582 6.679c8.904 8.904 8.904 22.261 0 31.165l-7.791 7.791zM237.070 204.243l-7.791-7.791c-8.904-8.905-8.904-22.262 0-31.166 4.452-4.452 10.018-6.676 15.583-6.676s11.13 2.224 15.582 6.676l7.791 7.791c8.904 8.905 8.904 22.262 0 31.166s-22.261 8.905-31.165 0zM763.548 730.713l-7.791-7.791c-8.905-8.905-8.905-22.261 0-31.165 4.452-4.452 10.019-6.679 15.585-6.679 5.562 0 11.129 2.226 15.581 6.679l7.791 7.791c8.905 8.905 8.905 22.261 0 31.165s-22.262 8.904-31.166 0zM534.262 456.905v202.574c0 12.243-10.019 22.261-22.262 22.261s-22.262-10.018-22.262-22.261v-211.479c0-5.566 2.228-11.129 6.681-15.581l243.757-243.757c4.448-4.452 10.015-6.681 15.581-6.681s11.129 2.228 15.581 6.681c8.905 8.905 8.905 22.262 0 31.166l-237.076 237.076zM512 960c-282.713 0-512-229.287-512-512s229.287-512 512-512c282.714 0 512 229.286 512 512s-229.286 512-512 512zM512-19.476c-258.226 0-467.478 209.252-467.478 467.476 0 258.226 209.252 467.478 467.478 467.478 258.224 0 467.476-209.252 467.476-467.478 0-258.224-209.252-467.476-467.476-467.476z" />
<glyph unicode="&#xe916;" glyph-name="modal-close" d="M568.549 447.967l443.716 443.716c15.622 15.622 15.622 40.95 0 56.57s-40.952 15.622-56.57 0l-443.716-443.716-443.713 443.716c-15.622 15.622-40.95 15.622-56.57 0s-15.622-40.95 0-56.57l443.713-443.712-443.713-443.716c-15.622-15.622-15.622-40.952 0-56.57 7.81-7.811 18.048-11.715 28.286-11.715s20.474 3.903 28.286 11.715l443.711 443.711 443.711-443.711c7.811-7.811 18.051-11.715 28.287-11.715 10.24 0 20.476 3.903 28.287 11.715 15.622 15.622 15.622 40.948 0 56.57l-443.716 443.711z" />
</font>
</defs>
</svg>
