<svg width="196" height="27" viewBox="0 0 196 27" fill="none" xmlns="http://www.w3.org/2000/svg">
<path d="M0.610104 0.799998H3.2741V23.696H17.3861V26H0.610104V0.799998ZM32.3331 26.216C29.8371 26.216 27.5691 25.664 25.5291 24.56C23.5131 23.432 21.9291 21.896 20.7771 19.952C19.6491 18.008 19.0851 15.824 19.0851 13.4C19.0851 10.976 19.6491 8.792 20.7771 6.848C21.9291 4.904 23.5131 3.38 25.5291 2.276C27.5691 1.148 29.8371 0.583999 32.3331 0.583999C34.8291 0.583999 37.0731 1.136 39.0651 2.24C41.0811 3.344 42.6651 4.88 43.8171 6.848C44.9691 8.792 45.5451 10.976 45.5451 13.4C45.5451 15.824 44.9691 18.02 43.8171 19.988C42.6651 21.932 41.0811 23.456 39.0651 24.56C37.0731 25.664 34.8291 26.216 32.3331 26.216ZM32.3331 23.84C34.3251 23.84 36.1251 23.396 37.7331 22.508C39.3411 21.596 40.6011 20.348 41.5131 18.764C42.4251 17.156 42.8811 15.368 42.8811 13.4C42.8811 11.432 42.4251 9.656 41.5131 8.072C40.6011 6.464 39.3411 5.216 37.7331 4.328C36.1251 3.416 34.3251 2.96 32.3331 2.96C30.3411 2.96 28.5291 3.416 26.8971 4.328C25.2891 5.216 24.0171 6.464 23.0811 8.072C22.1691 9.656 21.7131 11.432 21.7131 13.4C21.7131 15.368 22.1691 17.156 23.0811 18.764C24.0171 20.348 25.2891 21.596 26.8971 22.508C28.5291 23.396 30.3411 23.84 32.3331 23.84ZM69.2644 13.4H71.8204V23.012C70.6444 24.044 69.2524 24.836 67.6444 25.388C66.0364 25.94 64.3444 26.216 62.5684 26.216C60.0484 26.216 57.7804 25.664 55.7644 24.56C53.7484 23.456 52.1644 21.932 51.0124 19.988C49.8604 18.02 49.2844 15.824 49.2844 13.4C49.2844 10.976 49.8604 8.792 51.0124 6.848C52.1644 4.88 53.7484 3.344 55.7644 2.24C57.7804 1.136 60.0604 0.583999 62.6044 0.583999C64.5244 0.583999 66.2884 0.895999 67.8964 1.52C69.5044 2.12 70.8604 3.02 71.9644 4.22L70.3084 5.912C68.3164 3.944 65.7844 2.96 62.7124 2.96C60.6724 2.96 58.8244 3.416 57.1684 4.328C55.5364 5.216 54.2524 6.464 53.3164 8.072C52.3804 9.656 51.9124 11.432 51.9124 13.4C51.9124 15.368 52.3804 17.144 53.3164 18.728C54.2524 20.312 55.5364 21.56 57.1684 22.472C58.8004 23.384 60.6364 23.84 62.6764 23.84C65.2684 23.84 67.4644 23.192 69.2644 21.896V13.4ZM90.3761 26.216C87.8801 26.216 85.6121 25.664 83.5721 24.56C81.5561 23.432 79.9721 21.896 78.8201 19.952C77.6921 18.008 77.1281 15.824 77.1281 13.4C77.1281 10.976 77.6921 8.792 78.8201 6.848C79.9721 4.904 81.5561 3.38 83.5721 2.276C85.6121 1.148 87.8801 0.583999 90.3761 0.583999C92.8721 0.583999 95.1161 1.136 97.1081 2.24C99.1241 3.344 100.708 4.88 101.86 6.848C103.012 8.792 103.588 10.976 103.588 13.4C103.588 15.824 103.012 18.02 101.86 19.988C100.708 21.932 99.1241 23.456 97.1081 24.56C95.1161 25.664 92.8721 26.216 90.3761 26.216ZM90.3761 23.84C92.3681 23.84 94.1681 23.396 95.7761 22.508C97.3841 21.596 98.6441 20.348 99.5561 18.764C100.468 17.156 100.924 15.368 100.924 13.4C100.924 11.432 100.468 9.656 99.5561 8.072C98.6441 6.464 97.3841 5.216 95.7761 4.328C94.1681 3.416 92.3681 2.96 90.3761 2.96C88.3841 2.96 86.5721 3.416 84.9401 4.328C83.3321 5.216 82.0601 6.464 81.1241 8.072C80.2121 9.656 79.7561 11.432 79.7561 13.4C79.7561 15.368 80.2121 17.156 81.1241 18.764C82.0601 20.348 83.3321 21.596 84.9401 22.508C86.5721 23.396 88.3841 23.84 90.3761 23.84ZM114.104 3.104H105.248V0.799998H125.624V3.104H116.768V26H114.104V3.104ZM138.344 17.288V26H135.716V17.288L125.636 0.799998H128.48L137.12 14.948L145.76 0.799998H148.424L138.344 17.288ZM161.46 0.799998C164.676 0.799998 167.196 1.568 169.02 3.104C170.844 4.64 171.756 6.752 171.756 9.44C171.756 12.128 170.844 14.24 169.02 15.776C167.196 17.288 164.676 18.044 161.46 18.044H154.692V26H152.028V0.799998H161.46ZM161.388 15.704C163.884 15.704 165.792 15.164 167.112 14.084C168.432 12.98 169.092 11.432 169.092 9.44C169.092 7.4 168.432 5.84 167.112 4.76C165.792 3.656 163.884 3.104 161.388 3.104H154.692V15.704H161.388ZM195.336 23.696V26H177.516V0.799998H194.796V3.104H180.18V12.068H193.212V14.336H180.18V23.696H195.336Z" fill="black"/>
</svg>
