<svg width="196" height="27" viewBox="0 0 196 27" fill="none" xmlns="http://www.w3.org/2000/svg">
<path d="M0.60986 0.799998H3.27386V23.696H17.3859V26H0.60986V0.799998ZM32.3329 26.216C29.8369 26.216 27.5689 25.664 25.5289 24.56C23.5129 23.432 21.9289 21.896 20.7769 19.952C19.6489 18.008 19.0849 15.824 19.0849 13.4C19.0849 10.976 19.6489 8.792 20.7769 6.848C21.9289 4.904 23.5129 3.38 25.5289 2.276C27.5689 1.148 29.8369 0.583999 32.3329 0.583999C34.8289 0.583999 37.0729 1.136 39.0649 2.24C41.0809 3.344 42.6649 4.88 43.8169 6.848C44.9689 8.792 45.5449 10.976 45.5449 13.4C45.5449 15.824 44.9689 18.02 43.8169 19.988C42.6649 21.932 41.0809 23.456 39.0649 24.56C37.0729 25.664 34.8289 26.216 32.3329 26.216ZM32.3329 23.84C34.3249 23.84 36.1249 23.396 37.7329 22.508C39.3409 21.596 40.6009 20.348 41.5129 18.764C42.4249 17.156 42.8809 15.368 42.8809 13.4C42.8809 11.432 42.4249 9.656 41.5129 8.072C40.6009 6.464 39.3409 5.216 37.7329 4.328C36.1249 3.416 34.3249 2.96 32.3329 2.96C30.3409 2.96 28.5289 3.416 26.8969 4.328C25.2889 5.216 24.0169 6.464 23.0809 8.072C22.1689 9.656 21.7129 11.432 21.7129 13.4C21.7129 15.368 22.1689 17.156 23.0809 18.764C24.0169 20.348 25.2889 21.596 26.8969 22.508C28.5289 23.396 30.3409 23.84 32.3329 23.84ZM69.2641 13.4H71.8201V23.012C70.6441 24.044 69.2521 24.836 67.6441 25.388C66.0361 25.94 64.3441 26.216 62.5681 26.216C60.0481 26.216 57.7801 25.664 55.7641 24.56C53.7481 23.456 52.1641 21.932 51.0121 19.988C49.8601 18.02 49.2841 15.824 49.2841 13.4C49.2841 10.976 49.8601 8.792 51.0121 6.848C52.1641 4.88 53.7481 3.344 55.7641 2.24C57.7801 1.136 60.0601 0.583999 62.6041 0.583999C64.5241 0.583999 66.2881 0.895999 67.8961 1.52C69.5041 2.12 70.8601 3.02 71.9641 4.22L70.3081 5.912C68.3161 3.944 65.7841 2.96 62.7121 2.96C60.6721 2.96 58.8241 3.416 57.1681 4.328C55.5361 5.216 54.2521 6.464 53.3161 8.072C52.3801 9.656 51.9121 11.432 51.9121 13.4C51.9121 15.368 52.3801 17.144 53.3161 18.728C54.2521 20.312 55.5361 21.56 57.1681 22.472C58.8001 23.384 60.6361 23.84 62.6761 23.84C65.2681 23.84 67.4641 23.192 69.2641 21.896V13.4ZM90.3759 26.216C87.8799 26.216 85.6119 25.664 83.5719 24.56C81.5559 23.432 79.9719 21.896 78.8199 19.952C77.6919 18.008 77.1279 15.824 77.1279 13.4C77.1279 10.976 77.6919 8.792 78.8199 6.848C79.9719 4.904 81.5559 3.38 83.5719 2.276C85.6119 1.148 87.8799 0.583999 90.3759 0.583999C92.8719 0.583999 95.1159 1.136 97.1079 2.24C99.1239 3.344 100.708 4.88 101.86 6.848C103.012 8.792 103.588 10.976 103.588 13.4C103.588 15.824 103.012 18.02 101.86 19.988C100.708 21.932 99.1239 23.456 97.1079 24.56C95.1159 25.664 92.8719 26.216 90.3759 26.216ZM90.3759 23.84C92.3679 23.84 94.1679 23.396 95.7759 22.508C97.3839 21.596 98.6439 20.348 99.5559 18.764C100.468 17.156 100.924 15.368 100.924 13.4C100.924 11.432 100.468 9.656 99.5559 8.072C98.6439 6.464 97.3839 5.216 95.7759 4.328C94.1679 3.416 92.3679 2.96 90.3759 2.96C88.3839 2.96 86.5719 3.416 84.9399 4.328C83.3319 5.216 82.0599 6.464 81.1239 8.072C80.2119 9.656 79.7559 11.432 79.7559 13.4C79.7559 15.368 80.2119 17.156 81.1239 18.764C82.0599 20.348 83.3319 21.596 84.9399 22.508C86.5719 23.396 88.3839 23.84 90.3759 23.84ZM114.104 3.104H105.248V0.799998H125.624V3.104H116.768V26H114.104V3.104ZM138.344 17.288V26H135.716V17.288L125.636 0.799998H128.48L137.12 14.948L145.76 0.799998H148.424L138.344 17.288ZM161.46 0.799998C164.676 0.799998 167.196 1.568 169.02 3.104C170.844 4.64 171.756 6.752 171.756 9.44C171.756 12.128 170.844 14.24 169.02 15.776C167.196 17.288 164.676 18.044 161.46 18.044H154.692V26H152.028V0.799998H161.46ZM161.388 15.704C163.884 15.704 165.792 15.164 167.112 14.084C168.432 12.98 169.092 11.432 169.092 9.44C169.092 7.4 168.432 5.84 167.112 4.76C165.792 3.656 163.884 3.104 161.388 3.104H154.692V15.704H161.388ZM195.336 23.696V26H177.516V0.799998H194.796V3.104H180.18V12.068H193.212V14.336H180.18V23.696H195.336Z" fill="white"/>
</svg>
