<svg width="148" height="21" viewBox="0 0 148 21" fill="none" xmlns="http://www.w3.org/2000/svg">
<path d="M0.990285 1.04327H2.99428V18.2668H13.6101V20H0.990285V1.04327ZM24.854 20.1625C22.9764 20.1625 21.2702 19.7472 19.7357 18.9168C18.2191 18.0682 17.0276 16.9128 16.161 15.4504C15.3124 13.988 14.8881 12.3451 14.8881 10.5216C14.8881 8.69818 15.3124 7.05526 16.161 5.59289C17.0276 4.13051 18.2191 2.98408 19.7357 2.15359C21.2702 1.30505 22.9764 0.880784 24.854 0.880784C26.7316 0.880784 28.4196 1.29603 29.9181 2.12651C31.4347 2.957 32.6262 4.11246 33.4928 5.59289C34.3594 7.05526 34.7927 8.69818 34.7927 10.5216C34.7927 12.3451 34.3594 13.997 33.4928 15.4775C32.6262 16.9398 31.4347 18.0863 29.9181 18.9168C28.4196 19.7472 26.7316 20.1625 24.854 20.1625ZM24.854 18.3751C26.3525 18.3751 27.7065 18.0411 28.9161 17.3731C30.1257 16.6871 31.0736 15.7483 31.7596 14.5567C32.4457 13.3471 32.7887 12.0021 32.7887 10.5216C32.7887 9.0412 32.4457 7.70521 31.7596 6.51364C31.0736 5.30402 30.1257 4.36521 28.9161 3.69721C27.7065 3.01116 26.3525 2.66813 24.854 2.66813C23.3555 2.66813 21.9924 3.01116 20.7647 3.69721C19.5551 4.36521 18.5983 5.30402 17.8941 6.51364C17.2081 7.70521 16.8651 9.0412 16.8651 10.5216C16.8651 12.0021 17.2081 13.3471 17.8941 14.5567C18.5983 15.7483 19.5551 16.6871 20.7647 17.3731C21.9924 18.0411 23.3555 18.3751 24.854 18.3751ZM52.6355 10.5216H54.5583V17.7523C53.6736 18.5286 52.6265 19.1244 51.4169 19.5396C50.2073 19.9549 48.9344 20.1625 47.5984 20.1625C45.7028 20.1625 43.9967 19.7472 42.4801 18.9168C40.9636 18.0863 39.772 16.9398 38.9054 15.4775C38.0388 13.997 37.6055 12.3451 37.6055 10.5216C37.6055 8.69818 38.0388 7.05526 38.9054 5.59289C39.772 4.11246 40.9636 2.957 42.4801 2.12651C43.9967 1.29603 45.7118 0.880784 47.6255 0.880784C49.0699 0.880784 50.3968 1.11549 51.6064 1.58489C52.8161 2.03624 53.8361 2.71327 54.6666 3.61597L53.4209 4.88878C51.9224 3.40835 50.0177 2.66813 47.7068 2.66813C46.1722 2.66813 44.782 3.01116 43.5363 3.69721C42.3086 4.36521 41.3427 5.30402 40.6386 6.51364C39.9345 7.70521 39.5825 9.0412 39.5825 10.5216C39.5825 12.0021 39.9345 13.3381 40.6386 14.5296C41.3427 15.7212 42.3086 16.66 43.5363 17.3461C44.764 18.0321 46.1451 18.3751 47.6797 18.3751C49.6295 18.3751 51.2815 17.8877 52.6355 16.9128V10.5216ZM68.5169 20.1625C66.6392 20.1625 64.9331 19.7472 63.3985 18.9168C61.882 18.0682 60.6904 16.9128 59.8238 15.4504C58.9753 13.988 58.551 12.3451 58.551 10.5216C58.551 8.69818 58.9753 7.05526 59.8238 5.59289C60.6904 4.13051 61.882 2.98408 63.3985 2.15359C64.9331 1.30505 66.6392 0.880784 68.5169 0.880784C70.3945 0.880784 72.0825 1.29603 73.581 2.12651C75.0976 2.957 76.2891 4.11246 77.1557 5.59289C78.0223 7.05526 78.4556 8.69818 78.4556 10.5216C78.4556 12.3451 78.0223 13.997 77.1557 15.4775C76.2891 16.9398 75.0976 18.0863 73.581 18.9168C72.0825 19.7472 70.3945 20.1625 68.5169 20.1625ZM68.5169 18.3751C70.0153 18.3751 71.3694 18.0411 72.579 17.3731C73.7886 16.6871 74.7365 15.7483 75.4225 14.5567C76.1086 13.3471 76.4516 12.0021 76.4516 10.5216C76.4516 9.0412 76.1086 7.70521 75.4225 6.51364C74.7365 5.30402 73.7886 4.36521 72.579 3.69721C71.3694 3.01116 70.0153 2.66813 68.5169 2.66813C67.0184 2.66813 65.6553 3.01116 64.4276 3.69721C63.218 4.36521 62.2611 5.30402 61.557 6.51364C60.871 7.70521 60.528 9.0412 60.528 10.5216C60.528 12.0021 60.871 13.3471 61.557 14.5567C62.2611 15.7483 63.218 16.6871 64.4276 17.3731C65.6553 18.0411 67.0184 18.3751 68.5169 18.3751ZM86.366 2.77646H79.7041V1.04327H95.032V2.77646H88.37V20H86.366V2.77646ZM104.601 13.4464V20H102.624V13.4464L95.0411 1.04327H97.1805L103.68 11.6861L110.179 1.04327H112.183L104.601 13.4464ZM121.99 1.04327C124.409 1.04327 126.305 1.621 127.677 2.77646C129.049 3.93191 129.735 5.52067 129.735 7.54272C129.735 9.56477 129.049 11.1535 127.677 12.309C126.305 13.4464 124.409 14.0151 121.99 14.0151H116.899V20H114.895V1.04327H121.99ZM121.936 12.2548C123.813 12.2548 125.249 11.8486 126.242 11.0362C127.235 10.2057 127.731 9.04121 127.731 7.54272C127.731 6.00813 127.235 4.83462 126.242 4.02218C125.249 3.1917 123.813 2.77646 121.936 2.77646H116.899V12.2548H121.936ZM147.473 18.2668V20H134.068V1.04327H147.067V2.77646H136.072V9.51964H145.876V11.2257H136.072V18.2668H147.473Z" fill="black"/>
</svg>
