<svg width="315" height="77" viewBox="0 0 315 77" fill="none" xmlns="http://www.w3.org/2000/svg">
<path d="M166.5 76.5001C168.833 71.0001 175.2 60.5001 182 62.5001C188.8 64.5001 192.833 72.6668 194 76.5001H196.967C198.744 75.9345 200.839 74.2962 202.5 70.5001C206 62.5001 208 50.5001 211.5 52.5001C215 54.5001 213 71.0001 216.5 65.5001C220 60.0001 217.5 43.0001 221.5 44.0001C225.5 45.0001 223 60.5 226 65.5001C229 70.5001 227.5 24.5 230.5 24.5C233.5 24.5 237 22.5 238.5 31C240 39.5 249 31.9999 249 24.5C249 17 250.5 -2 254.5 1C258.5 4 255 27.5 258 37.5C261 47.5 256.5 76.5001 306.5 76.5001H196.967C195.748 76.8881 194.678 76.7714 194 76.5001H166.5Z" fill="#E4DFF0"/>
<path d="M175 76.8461C172.244 73.4478 164.724 66.9601 156.693 68.1959C148.661 69.4316 143.897 74.4776 142.519 76.8461H139.015C136.916 76.4966 134.441 75.4844 132.48 73.1388C128.346 68.1959 125.984 60.7814 121.85 62.0171C117.716 63.2529 120.078 73.4478 115.944 70.0495C111.81 66.6512 114.763 56.1473 110.038 56.7652C105.314 57.3831 108.267 66.9601 104.723 70.0495C101.18 73.1388 102.952 44.7167 99.4084 44.7167C95.865 44.7167 91.7311 43.4809 89.9594 48.7328C88.1878 53.9847 77.5577 49.3507 77.5577 44.7167C77.5577 40.0827 75.786 28.3431 71.0616 30.1967C66.3371 32.0503 70.471 46.5703 66.9276 52.749C63.3843 58.9277 68.6993 76.8461 9.64337 76.8461H139.015C140.455 77.0858 141.718 77.0137 142.519 76.8461H175Z" fill="#E4DFF0"/>
</svg>
